<svg width="213" height="29" viewBox="0 0 213 29" fill="none" xmlns="http://www.w3.org/2000/svg">
<path d="M6.162 20.734C5.39933 20.474 4.706 20.214 4.082 19.954C3.458 19.6767 2.92067 19.3473 2.47 18.966C2.01933 18.5847 1.664 18.134 1.404 17.614C1.16133 17.0767 1.04 16.4267 1.04 15.664C1.04 14.1907 1.60333 13.012 2.73 12.128C3.874 11.244 5.46867 10.802 7.514 10.802C8.25933 10.802 8.95267 10.854 9.594 10.958C10.2353 11.062 10.7813 11.2267 11.232 11.452C11.7 11.66 12.064 11.9373 12.324 12.284C12.584 12.6133 12.714 13.0033 12.714 13.454C12.714 13.9047 12.61 14.2947 12.402 14.624C12.194 14.936 11.9427 15.2047 11.648 15.43C11.2667 15.1873 10.7553 14.9793 10.114 14.806C9.47267 14.6153 8.77067 14.52 8.008 14.52C7.228 14.52 6.656 14.6327 6.292 14.858C5.928 15.066 5.746 15.3347 5.746 15.664C5.746 15.924 5.85867 16.1407 6.084 16.314C6.30933 16.47 6.64733 16.6173 7.098 16.756L8.476 17.198C10.1053 17.718 11.3533 18.3853 12.22 19.2C13.104 19.9973 13.546 21.0893 13.546 22.476C13.546 23.9493 12.9653 25.1453 11.804 26.064C10.6427 26.9653 8.93533 27.416 6.682 27.416C5.88467 27.416 5.13933 27.3467 4.446 27.208C3.77 27.0867 3.172 26.9047 2.652 26.662C2.14933 26.402 1.75067 26.09 1.456 25.726C1.17867 25.3447 1.04 24.9113 1.04 24.426C1.04 23.9233 1.18733 23.4987 1.482 23.152C1.77667 22.788 2.09733 22.5107 2.444 22.32C2.92933 22.7013 3.51867 23.0307 4.212 23.308C4.92267 23.5853 5.694 23.724 6.526 23.724C7.37533 23.724 7.97333 23.594 8.32 23.334C8.66667 23.074 8.84 22.7707 8.84 22.424C8.84 22.0773 8.70133 21.8173 8.424 21.644C8.14667 21.4533 7.75667 21.2713 7.254 21.098L6.162 20.734ZM14.9522 14.884C14.8309 14.6933 14.7182 14.4333 14.6142 14.104C14.5102 13.7747 14.4582 13.428 14.4582 13.064C14.4582 12.388 14.6056 11.9027 14.9002 11.608C15.2122 11.3133 15.6109 11.166 16.0962 11.166H27.4322C27.5536 11.3567 27.6662 11.6167 27.7702 11.946C27.8742 12.2753 27.9262 12.622 27.9262 12.986C27.9262 13.662 27.7702 14.1473 27.4582 14.442C27.1636 14.7367 26.7736 14.884 26.2882 14.884H23.4022V26.896C23.2116 26.948 22.9082 27 22.4922 27.052C22.0936 27.104 21.6949 27.13 21.2962 27.13C20.8976 27.13 20.5422 27.0953 20.2302 27.026C19.9356 26.974 19.6842 26.87 19.4762 26.714C19.2682 26.558 19.1122 26.3413 19.0082 26.064C18.9042 25.7867 18.8522 25.4227 18.8522 24.972V14.884H14.9522ZM44.0895 21.176C44.0895 22.112 43.9248 22.97 43.5955 23.75C43.2835 24.5127 42.8242 25.1713 42.2175 25.726C41.6108 26.2633 40.8742 26.6793 40.0075 26.974C39.1408 27.2687 38.1615 27.416 37.0695 27.416C35.9775 27.416 34.9982 27.2687 34.1315 26.974C33.2648 26.6793 32.5282 26.2633 31.9215 25.726C31.3148 25.1713 30.8468 24.5127 30.5175 23.75C30.2055 22.97 30.0495 22.112 30.0495 21.176V11.244C30.2402 11.2093 30.5435 11.166 30.9595 11.114C31.3755 11.0447 31.7742 11.01 32.1555 11.01C32.5542 11.01 32.9008 11.0447 33.1955 11.114C33.5075 11.166 33.7675 11.27 33.9755 11.426C34.1835 11.582 34.3395 11.7987 34.4435 12.076C34.5475 12.3533 34.5995 12.7173 34.5995 13.168V21.098C34.5995 21.93 34.8248 22.58 35.2755 23.048C35.7435 23.516 36.3415 23.75 37.0695 23.75C37.8148 23.75 38.4128 23.516 38.8635 23.048C39.3142 22.58 39.5395 21.93 39.5395 21.098V11.244C39.7302 11.2093 40.0335 11.166 40.4495 11.114C40.8655 11.0447 41.2642 11.01 41.6455 11.01C42.0442 11.01 42.3908 11.0447 42.6855 11.114C42.9975 11.166 43.2575 11.27 43.4655 11.426C43.6735 11.582 43.8295 11.7987 43.9335 12.076C44.0375 12.3533 44.0895 12.7173 44.0895 13.168V21.176ZM51.9171 23.62C52.1078 23.6547 52.3418 23.6893 52.6191 23.724C52.8965 23.7413 53.1565 23.75 53.3991 23.75C53.9885 23.75 54.5258 23.6633 55.0111 23.49C55.5138 23.3167 55.9385 23.048 56.2851 22.684C56.6491 22.32 56.9265 21.852 57.1171 21.28C57.3251 20.6907 57.4291 19.9887 57.4291 19.174C57.4291 17.614 57.0651 16.444 56.3371 15.664C55.6091 14.8667 54.6385 14.468 53.4251 14.468C53.1825 14.468 52.9311 14.4767 52.6711 14.494C52.4285 14.5113 52.1771 14.5373 51.9171 14.572V23.62ZM53.3731 27.416C53.0785 27.416 52.7405 27.4073 52.3591 27.39C51.9778 27.3727 51.5791 27.338 51.1631 27.286C50.7645 27.234 50.3571 27.1647 49.9411 27.078C49.5425 27.0087 49.1698 26.9047 48.8231 26.766C47.8698 26.402 47.3931 25.7693 47.3931 24.868V12.726C47.3931 12.362 47.4885 12.0847 47.6791 11.894C47.8871 11.686 48.1645 11.5213 48.5111 11.4C49.2565 11.1573 50.0451 11.0013 50.8771 10.932C51.7091 10.8453 52.4545 10.802 53.1131 10.802C54.4651 10.802 55.6871 10.9667 56.7791 11.296C57.8885 11.6253 58.8331 12.1367 59.6131 12.83C60.4105 13.506 61.0258 14.364 61.4591 15.404C61.8925 16.444 62.1091 17.6747 62.1091 19.096C62.1091 20.4827 61.9011 21.696 61.4851 22.736C61.0691 23.7587 60.4711 24.6253 59.6911 25.336C58.9285 26.0293 58.0098 26.5493 56.9351 26.896C55.8605 27.2427 54.6731 27.416 53.3731 27.416ZM69.2595 26.896C69.0689 26.948 68.7655 27 68.3495 27.052C67.9509 27.104 67.5522 27.13 67.1535 27.13C66.7549 27.13 66.3995 27.0953 66.0875 27.026C65.7929 26.974 65.5415 26.87 65.3335 26.714C65.1255 26.558 64.9695 26.3413 64.8655 26.064C64.7615 25.7867 64.7095 25.4227 64.7095 24.972V11.244C64.9002 11.2093 65.2035 11.166 65.6195 11.114C66.0355 11.0447 66.4342 11.01 66.8155 11.01C67.2142 11.01 67.5609 11.0447 67.8555 11.114C68.1675 11.166 68.4275 11.27 68.6355 11.426C68.8435 11.582 68.9995 11.7987 69.1035 12.076C69.2075 12.3533 69.2595 12.7173 69.2595 13.168V26.896ZM71.8514 19.096C71.8514 17.744 72.0594 16.548 72.4754 15.508C72.9087 14.468 73.4894 13.6013 74.2174 12.908C74.9627 12.1973 75.8294 11.66 76.8174 11.296C77.8227 10.932 78.9061 10.75 80.0674 10.75C81.2287 10.75 82.3034 10.932 83.2914 11.296C84.2967 11.66 85.1721 12.1973 85.9174 12.908C86.6627 13.6013 87.2434 14.468 87.6594 15.508C88.0927 16.548 88.3094 17.744 88.3094 19.096C88.3094 20.448 88.1014 21.6527 87.6854 22.71C87.2694 23.75 86.6887 24.6253 85.9434 25.336C85.2154 26.0293 84.3487 26.558 83.3434 26.922C82.3381 27.286 81.2461 27.468 80.0674 27.468C78.8887 27.468 77.7967 27.286 76.7914 26.922C75.7861 26.5407 74.9194 25.9947 74.1914 25.284C73.4634 24.5733 72.8914 23.698 72.4754 22.658C72.0594 21.618 71.8514 20.4307 71.8514 19.096ZM76.5314 19.096C76.5314 20.6733 76.8521 21.852 77.4934 22.632C78.1347 23.412 78.9927 23.802 80.0674 23.802C81.1594 23.802 82.0261 23.412 82.6674 22.632C83.3087 21.852 83.6294 20.6733 83.6294 19.096C83.6294 17.536 83.3087 16.366 82.6674 15.586C82.0434 14.806 81.1854 14.416 80.0934 14.416C79.0187 14.416 78.1521 14.806 77.4934 15.586C76.8521 16.3487 76.5314 17.5187 76.5314 19.096ZM110.392 24.426C110.392 24.9633 110.296 25.362 110.106 25.622C109.915 25.882 109.612 26.1333 109.196 26.376C108.953 26.5147 108.65 26.6533 108.286 26.792C107.922 26.9133 107.523 27.0173 107.09 27.104C106.656 27.208 106.197 27.286 105.712 27.338C105.244 27.39 104.776 27.416 104.308 27.416C103.06 27.416 101.89 27.2513 100.798 26.922C99.7057 26.5753 98.7524 26.064 97.9377 25.388C97.1404 24.6947 96.5077 23.8367 96.0397 22.814C95.5717 21.7913 95.3377 20.604 95.3377 19.252C95.3377 17.8307 95.5891 16.5913 96.0917 15.534C96.6117 14.4767 97.2877 13.6013 98.1197 12.908C98.9691 12.1973 99.9311 11.6687 101.006 11.322C102.098 10.9753 103.216 10.802 104.36 10.802C106.006 10.802 107.306 11.0707 108.26 11.608C109.23 12.128 109.716 12.8127 109.716 13.662C109.716 14.1127 109.603 14.5027 109.378 14.832C109.152 15.1613 108.892 15.4213 108.598 15.612C108.164 15.352 107.618 15.1007 106.96 14.858C106.318 14.598 105.59 14.468 104.776 14.468C103.32 14.468 102.158 14.884 101.292 15.716C100.442 16.548 100.018 17.7007 100.018 19.174C100.018 19.9713 100.13 20.6647 100.356 21.254C100.598 21.826 100.919 22.3027 101.318 22.684C101.716 23.048 102.176 23.3253 102.696 23.516C103.216 23.6893 103.77 23.776 104.36 23.776C104.741 23.776 105.079 23.7413 105.374 23.672C105.668 23.6027 105.894 23.5247 106.05 23.438V20.994H103.268C103.164 20.8033 103.06 20.552 102.956 20.24C102.869 19.928 102.826 19.5987 102.826 19.252C102.826 18.628 102.964 18.1773 103.242 17.9C103.536 17.6227 103.909 17.484 104.36 17.484H108.754C109.274 17.484 109.672 17.6313 109.95 17.926C110.244 18.2033 110.392 18.602 110.392 19.122V24.426ZM127.475 26.896C127.285 26.948 126.981 27 126.565 27.052C126.167 27.104 125.768 27.13 125.369 27.13C124.971 27.13 124.615 27.0953 124.303 27.026C124.009 26.974 123.757 26.87 123.549 26.714C123.341 26.558 123.185 26.3413 123.081 26.064C122.977 25.7867 122.925 25.4227 122.925 24.972V20.916H117.933V26.896C117.743 26.948 117.439 27 117.023 27.052C116.625 27.104 116.226 27.13 115.827 27.13C115.429 27.13 115.073 27.0953 114.761 27.026C114.467 26.974 114.215 26.87 114.007 26.714C113.799 26.558 113.643 26.3413 113.539 26.064C113.435 25.7867 113.383 25.4227 113.383 24.972V11.244C113.574 11.2093 113.877 11.166 114.293 11.114C114.709 11.0447 115.108 11.01 115.489 11.01C115.888 11.01 116.235 11.0447 116.529 11.114C116.841 11.166 117.101 11.27 117.309 11.426C117.517 11.582 117.673 11.7987 117.777 12.076C117.881 12.3533 117.933 12.7173 117.933 13.168V17.328H122.925V11.244C123.116 11.2093 123.419 11.166 123.835 11.114C124.251 11.0447 124.65 11.01 125.031 11.01C125.43 11.01 125.777 11.0447 126.071 11.114C126.383 11.166 126.643 11.27 126.851 11.426C127.059 11.582 127.215 11.7987 127.319 12.076C127.423 12.3533 127.475 12.7173 127.475 13.168V26.896ZM135.402 26.896C135.211 26.948 134.908 27 134.492 27.052C134.093 27.104 133.695 27.13 133.296 27.13C132.897 27.13 132.542 27.0953 132.23 27.026C131.935 26.974 131.684 26.87 131.476 26.714C131.268 26.558 131.112 26.3413 131.008 26.064C130.904 25.7867 130.852 25.4227 130.852 24.972V11.244C131.043 11.2093 131.346 11.166 131.762 11.114C132.178 11.0447 132.577 11.01 132.958 11.01C133.357 11.01 133.703 11.0447 133.998 11.114C134.31 11.166 134.57 11.27 134.778 11.426C134.986 11.582 135.142 11.7987 135.246 12.076C135.35 12.3533 135.402 12.7173 135.402 13.168V26.896ZM143.194 23.75C143.437 23.8193 143.749 23.8713 144.13 23.906C144.511 23.9233 144.875 23.932 145.222 23.932C145.915 23.932 146.487 23.7933 146.938 23.516C147.406 23.2213 147.64 22.7707 147.64 22.164C147.64 21.592 147.449 21.1847 147.068 20.942C146.687 20.6993 146.106 20.578 145.326 20.578H143.194V23.75ZM143.194 17.406H145.092C145.837 17.406 146.375 17.2673 146.704 16.99C147.051 16.7127 147.224 16.3053 147.224 15.768C147.224 15.3 147.025 14.9273 146.626 14.65C146.245 14.3727 145.664 14.234 144.884 14.234C144.624 14.234 144.321 14.2427 143.974 14.26C143.645 14.2773 143.385 14.3033 143.194 14.338V17.406ZM144.884 27.416C144.589 27.416 144.243 27.4073 143.844 27.39C143.445 27.3727 143.029 27.338 142.596 27.286C142.18 27.234 141.764 27.1647 141.348 27.078C140.932 27.0087 140.551 26.9047 140.204 26.766C139.251 26.402 138.774 25.7693 138.774 24.868V12.726C138.774 12.362 138.869 12.0847 139.06 11.894C139.268 11.686 139.545 11.5213 139.892 11.4C140.481 11.192 141.218 11.0447 142.102 10.958C142.986 10.854 143.896 10.802 144.832 10.802C147.051 10.802 148.758 11.1747 149.954 11.92C151.15 12.6653 151.748 13.818 151.748 15.378C151.748 16.158 151.523 16.834 151.072 17.406C150.621 17.9607 150.015 18.368 149.252 18.628C150.119 18.8707 150.838 19.3127 151.41 19.954C151.999 20.5953 152.294 21.4013 152.294 22.372C152.294 24.088 151.653 25.362 150.37 26.194C149.105 27.0087 147.276 27.416 144.884 27.416ZM157.29 27.078C156.544 27.078 155.955 26.8613 155.522 26.428C155.088 25.9947 154.872 25.4053 154.872 24.66V11.218C155.062 11.1833 155.366 11.14 155.782 11.088C156.198 11.0187 156.596 10.984 156.978 10.984C157.376 10.984 157.723 11.0187 158.018 11.088C158.33 11.14 158.59 11.244 158.798 11.4C159.006 11.556 159.162 11.7727 159.266 12.05C159.37 12.3273 159.422 12.6913 159.422 13.142V23.412H165.376C165.497 23.6027 165.61 23.8627 165.714 24.192C165.818 24.504 165.87 24.8333 165.87 25.18C165.87 25.8733 165.722 26.3673 165.428 26.662C165.133 26.9393 164.743 27.078 164.258 27.078H157.29ZM172.752 26.896C172.561 26.948 172.258 27 171.842 27.052C171.443 27.104 171.044 27.13 170.646 27.13C170.247 27.13 169.892 27.0953 169.58 27.026C169.285 26.974 169.034 26.87 168.826 26.714C168.618 26.558 168.462 26.3413 168.358 26.064C168.254 25.7867 168.202 25.4227 168.202 24.972V11.244C168.392 11.2093 168.696 11.166 169.112 11.114C169.528 11.0447 169.926 11.01 170.308 11.01C170.706 11.01 171.053 11.0447 171.348 11.114C171.66 11.166 171.92 11.27 172.128 11.426C172.336 11.582 172.492 11.7987 172.596 12.076C172.7 12.3533 172.752 12.7173 172.752 13.168V26.896Z" fill="black"/>
<path d="M193.766 11.244C193.887 11.4347 193.991 11.6947 194.078 12.024C194.182 12.336 194.234 12.6653 194.234 13.012C194.234 13.688 194.087 14.1733 193.792 14.468C193.515 14.7453 193.133 14.884 192.648 14.884H187.188V17.822H192.882C193.021 18.0127 193.133 18.264 193.22 18.576C193.324 18.888 193.376 19.2173 193.376 19.564C193.376 20.2227 193.229 20.6993 192.934 20.994C192.657 21.2713 192.275 21.41 191.79 21.41H187.24V26.896C187.049 26.948 186.746 27 186.33 27.052C185.931 27.104 185.533 27.13 185.134 27.13C184.735 27.13 184.38 27.0953 184.068 27.026C183.773 26.974 183.522 26.87 183.314 26.714C183.106 26.558 182.95 26.3413 182.846 26.064C182.742 25.7867 182.69 25.4227 182.69 24.972V13.662C182.69 12.9167 182.907 12.3273 183.34 11.894C183.773 11.4607 184.363 11.244 185.108 11.244H193.766ZM202.405 18.55C203.133 18.55 203.687 18.3853 204.069 18.056C204.467 17.7093 204.667 17.1893 204.667 16.496C204.667 15.8373 204.459 15.3347 204.043 14.988C203.644 14.624 203.055 14.442 202.275 14.442C201.997 14.442 201.763 14.4507 201.573 14.468C201.399 14.468 201.217 14.4853 201.027 14.52V18.55H202.405ZM201.053 26.896C200.862 26.948 200.559 27 200.143 27.052C199.744 27.104 199.345 27.13 198.947 27.13C198.548 27.13 198.193 27.0953 197.881 27.026C197.586 26.974 197.335 26.87 197.127 26.714C196.919 26.558 196.763 26.3413 196.659 26.064C196.555 25.7867 196.503 25.4227 196.503 24.972V12.726C196.503 12.362 196.598 12.0847 196.789 11.894C196.997 11.686 197.274 11.5213 197.621 11.4C198.21 11.192 198.877 11.0447 199.623 10.958C200.385 10.854 201.148 10.802 201.911 10.802C204.303 10.802 206.131 11.3133 207.397 12.336C208.662 13.3587 209.295 14.7453 209.295 16.496C209.295 17.3453 209.156 18.1167 208.879 18.81C208.619 19.486 208.22 20.0753 207.683 20.578C207.163 21.0633 206.495 21.4447 205.681 21.722C204.883 21.982 203.956 22.112 202.899 22.112H201.053V26.896Z" fill="#0264D7"/>
</svg>
