<svg width="74" height="70" viewBox="0 0 74 70" fill="none" xmlns="http://www.w3.org/2000/svg">
<g opacity="0.7">
<path d="M55.1802 32.6323C54.9855 27.6017 53.6709 22.5608 50.8595 18.1821C50.7312 17.983 50.5999 17.785 50.4655 17.588C48.9676 17.6355 47.4709 17.7023 45.9753 17.7884C42.8749 17.9682 39.7829 18.2331 36.6994 18.583C36.6386 18.583 36.5804 18.5612 36.5374 18.5224C36.4945 18.4837 36.4703 18.4311 36.4703 18.3763C36.4721 18.322 36.4968 18.2704 36.5393 18.2319C36.5819 18.1935 36.6392 18.1712 36.6994 18.1697C38.4332 17.9727 40.1712 17.8029 41.9134 17.6603C44.6664 17.4344 47.4251 17.2756 50.1895 17.184C47.8694 13.9119 44.7305 11.0882 40.9583 9.19639C40.5308 8.70562 39.9204 8.37153 39.2405 8.25618C39.1392 8.23982 39.0348 8.25097 38.9405 8.28821C36.8906 7.47818 34.6633 6.94505 32.4347 7.12586C30.4364 7.28807 28.5068 7.96378 26.7398 8.85543C26.6893 8.84811 26.6379 8.84811 26.5875 8.85543C26.2966 8.89159 26.0435 9.0786 25.803 9.22222C25.5626 9.36583 25.345 9.50531 25.1274 9.65306C25.0359 9.7155 24.9602 9.79473 24.9052 9.88553L24.8697 9.90722C21.2052 12.1803 18.3319 15.3894 16.3554 18.9694C16.676 18.9177 16.9978 18.8661 17.3196 18.8216C18.7442 18.615 20.1757 18.4466 21.6083 18.2937C23.0581 18.1397 24.6018 17.963 25.9897 18.4838C26.0187 18.4909 26.0459 18.5032 26.0697 18.5199C26.0935 18.5365 26.1134 18.5573 26.1283 18.5809C26.1432 18.6045 26.1527 18.6305 26.1565 18.6575C26.1602 18.6844 26.158 18.7118 26.15 18.7379C26.1421 18.7641 26.1285 18.7887 26.11 18.8101C26.0915 18.8316 26.0686 18.8495 26.0424 18.863C26.0162 18.8764 25.9874 18.885 25.9575 18.8884C25.9277 18.8918 25.8973 18.8898 25.8683 18.8826C24.3533 18.3143 22.6401 18.5933 21.0655 18.7658C19.4084 18.9477 17.7513 19.1554 16.108 19.4271C15.9866 19.6585 15.8687 19.891 15.7541 20.1245C13.4352 24.8669 12.7286 30.1403 13.0492 35.2846C13.2525 38.4225 13.7851 41.5361 14.6399 44.5833C15.1956 46.5819 15.8773 48.5502 16.6817 50.4787C17.6471 52.8057 18.8154 55.06 20.1757 57.2203C21.5499 59.39 23.1119 61.506 24.9339 63.3885C25.369 63.839 25.8729 64.2977 26.5165 64.4888C26.6021 64.5139 26.6893 64.5342 26.7776 64.5498L26.434 63.2201C26.4178 63.1672 26.4255 63.1107 26.4554 63.0629C26.4854 63.0151 26.5352 62.9801 26.5938 62.9654C26.6524 62.9507 26.7151 62.9577 26.768 62.9847C26.821 63.0118 26.8598 63.0566 26.8761 63.1095C27.002 63.6013 27.1276 64.0924 27.2528 64.5829C27.4224 64.5771 27.5898 64.5468 27.7487 64.493C27.7821 64.0216 27.7725 63.5485 27.7201 63.0785C27.7201 63.0237 27.7442 62.9712 27.7871 62.9324C27.8301 62.8937 27.8884 62.8719 27.9491 62.8719C28.0094 62.8732 28.0668 62.8954 28.1094 62.9339C28.1521 62.9723 28.1767 63.0241 28.1781 63.0785C28.219 63.4527 28.2335 63.8289 28.2217 64.2047C28.2229 64.2025 28.2249 64.2007 28.2274 64.1996C28.6488 63.7863 28.6969 63.1591 28.7026 62.6229C28.7026 61.9668 28.6729 61.3097 28.6568 60.6598C28.5805 57.7503 28.5041 54.8416 28.4278 51.9335C28.4209 51.6669 28.879 51.6679 28.8859 51.9335C28.924 53.3882 28.9622 54.8426 29.0004 56.2966C29.0393 57.7893 29.0775 59.2822 29.1149 60.7755C29.1218 61.0535 29.1344 61.3314 29.1447 61.6104C29.8454 62.0157 30.6294 62.2898 31.4499 62.4163C32.2014 62.536 32.9623 62.6013 33.7254 62.6115C34.5273 62.6362 35.3301 62.6217 36.1302 62.5681C37.6361 62.4586 39.1409 62.1466 40.4578 61.4637C40.3571 60.4945 40.278 59.524 40.2208 58.5521C40.0857 56.2419 40.0746 53.9296 40.1876 51.6152C40.2002 51.3497 40.6582 51.3497 40.6456 51.6152C40.5876 52.8303 40.5628 54.046 40.5712 55.2624C40.5857 57.346 40.7002 59.4269 40.9148 61.505C40.93 61.5412 40.9339 61.5805 40.9262 61.6186C40.9262 61.6476 40.9319 61.6775 40.9354 61.7065C40.9881 62.2003 41.0362 62.6963 41.1197 63.187C41.1794 63.6151 41.3086 64.0328 41.5034 64.4269C41.6014 64.621 41.7306 64.801 41.887 64.961C41.9695 65.0426 42.179 65.2121 42.321 65.1553C42.3978 65.1243 42.4046 65.0096 42.4149 64.9486C42.4356 64.8308 42.4493 64.712 42.4607 64.5922C42.4856 64.33 42.4932 64.0668 42.4837 63.8038C42.4745 63.5373 42.9337 63.5383 42.9417 63.8038C42.9526 64.1246 42.9388 64.4457 42.9005 64.7647C42.889 64.889 42.8687 65.0126 42.8398 65.1346C42.87 65.1506 42.8943 65.1743 42.9097 65.2028C42.936 65.2534 42.9417 65.2544 43.0047 65.2524C43.0309 65.2516 43.0565 65.2459 43.0802 65.2358C43.1038 65.2257 43.1249 65.2113 43.1421 65.1935C43.2761 65.0654 43.3013 64.8484 43.3368 64.6769C43.4348 64.2047 43.4714 63.7237 43.4456 63.2438C43.433 62.9773 43.8911 62.9793 43.9037 63.2438C43.9441 63.8454 43.8815 64.449 43.7181 65.0333C44.6824 64.5095 45.4542 63.7625 46.0795 62.9194C46.7746 61.9823 47.3037 60.9564 47.8053 59.9232C48.4214 58.6585 49.018 57.3843 49.5952 56.1003C50.7175 53.601 51.7458 51.0666 52.6104 48.4857C53.3293 46.3569 53.9139 44.193 54.3614 42.0045C55.0059 38.9159 55.2805 35.7738 55.1802 32.6323V32.6323ZM36.5207 16.5734C37.9866 16.229 39.4676 15.9483 40.964 15.7313C40.993 15.7241 41.0233 15.7222 41.0532 15.7255C41.0831 15.7289 41.1119 15.7375 41.1381 15.751C41.1643 15.7644 41.1872 15.7824 41.2057 15.8038C41.2242 15.8253 41.2378 15.8498 41.2457 15.876C41.2537 15.9022 41.2559 15.9295 41.2522 15.9565C41.2484 15.9834 41.2389 16.0095 41.224 16.0331C41.2091 16.0567 41.1892 16.0774 41.1654 16.0941C41.1416 16.1107 41.1144 16.123 41.0854 16.1302C39.5913 16.3478 38.1102 16.6285 36.6421 16.9722C36.3558 17.0394 36.2356 16.6406 36.5207 16.5734ZM34.1365 13.6102C34.1556 13.5919 34.1787 13.5773 34.2043 13.5673C34.2299 13.5574 34.2575 13.5523 34.2853 13.5523C34.32 13.5163 34.3605 13.4853 34.4056 13.4604C34.4744 13.4246 34.551 13.4028 34.6301 13.3964C34.7092 13.39 34.7889 13.3991 34.8637 13.4232C34.95 13.4484 35.0293 13.4901 35.0963 13.5453C35.1633 13.6006 35.2163 13.6681 35.2519 13.7435C35.3263 13.9098 35.2232 14.071 35.087 14.1805C34.9789 14.2738 34.8447 14.3388 34.6988 14.3686C34.6238 14.3843 34.5462 14.3865 34.4703 14.3749C34.3944 14.3634 34.3218 14.3384 34.2567 14.3014C34.0117 14.1433 33.9212 13.8251 34.1365 13.6102V13.6102ZM29.6989 13.6887C29.7259 13.6388 29.7658 13.5955 29.8152 13.5624C29.8646 13.5293 29.9222 13.5074 29.9829 13.4986C30.041 13.463 30.1047 13.4355 30.1719 13.417C30.318 13.3792 30.4721 13.3742 30.6208 13.4025C30.7171 13.421 30.8036 13.4686 30.866 13.5373C30.9285 13.606 30.9631 13.6918 30.9643 13.7807C30.9645 13.8622 30.9413 13.9423 30.8972 14.0134C30.8531 14.0845 30.7895 14.1442 30.7124 14.1867C30.5713 14.2599 30.4101 14.2957 30.2475 14.29C30.0812 14.2954 29.9185 14.2462 29.7894 14.1516C29.7188 14.0949 29.6715 14.0183 29.6551 13.9343C29.6387 13.8503 29.6541 13.7638 29.6989 13.6887V13.6887ZM29.431 17.7709C29.4637 17.6008 29.5603 17.4461 29.7047 17.3328C29.8652 17.216 30.0642 17.1506 30.2704 17.1468L31.6709 17.0208C32.0958 16.9825 32.5241 16.9257 32.9501 16.9102C33.3223 16.8958 33.7116 16.9722 33.9521 17.247C34.1926 17.5219 34.1376 17.867 33.9418 18.1439C33.7418 18.4151 33.5052 18.6629 33.2375 18.8816C32.9925 19.1033 32.6903 19.2666 32.358 19.3568C32.051 20.404 32.0263 21.5022 32.2859 22.5597C32.35 22.8191 31.908 22.9286 31.8438 22.6692C31.5767 21.5905 31.5865 20.4709 31.8725 19.3961C31.6793 19.3872 31.4886 19.3524 31.3068 19.2928C30.5819 19.0572 29.9783 18.5509 29.4825 18.0333C29.458 18.0087 29.4405 17.9791 29.4313 17.9471C29.4222 17.9151 29.4216 17.8816 29.4298 17.8494C29.4267 17.8233 29.4271 17.7969 29.431 17.7709V17.7709ZM25.945 17.2315C25.6599 17.0249 25.2957 16.9391 24.9465 16.8751C24.533 16.7997 24.1128 16.747 23.6971 16.685L21.0265 16.2903C20.9975 16.2831 20.9703 16.2709 20.9465 16.2542C20.9227 16.2375 20.9028 16.2168 20.888 16.1932C20.8731 16.1696 20.8635 16.1436 20.8597 16.1166C20.856 16.0897 20.8582 16.0623 20.8662 16.0361C20.884 15.9843 20.9231 15.9404 20.9754 15.9136C21.0277 15.8867 21.0894 15.8788 21.1479 15.8915L23.9307 16.3048C24.7323 16.4226 25.6095 16.4721 26.2691 16.9402C26.2904 16.9594 26.3073 16.9822 26.3188 17.0072C26.3304 17.0323 26.3363 17.0592 26.3363 17.0864C26.3363 17.1135 26.3304 17.1404 26.3188 17.1655C26.3073 17.1906 26.2904 17.2134 26.2691 17.2326C26.2256 17.2689 26.1685 17.2892 26.1092 17.2896C26.0499 17.29 25.9926 17.2704 25.9485 17.2346L25.945 17.2315ZM34.9507 49.4145C34.9148 49.4469 34.868 49.4677 34.8176 49.4735C34.7673 49.4793 34.7162 49.4698 34.6724 49.4466C34.3968 49.2812 34.1216 49.1142 33.8467 48.9455L33.7013 48.8556C31.0469 47.2143 28.5046 45.4302 26.0882 43.5129C23.9124 41.7844 21.6403 39.9339 20.399 37.5204C19.7256 36.2103 19.4118 34.7855 19.2538 33.3566C19.0958 31.9277 19.1106 30.4451 19.6054 29.0658C20.0039 27.953 20.7311 26.9188 21.7606 26.1976C22.2771 25.8319 22.8696 25.5632 23.5032 25.4074C24.1367 25.2516 24.7984 25.2118 25.4492 25.2905C26.8234 25.4547 28.09 26.0664 29.1573 26.8496C30.2369 27.6632 31.1488 28.6426 31.8507 29.7425C31.9303 29.5635 32.0217 29.3889 32.1244 29.2197C32.7852 28.1348 33.8513 27.2618 34.8969 26.4817C35.9642 25.6841 37.1769 24.9784 38.5798 24.8152C39.8658 24.6643 41.1747 25.0373 42.2248 25.7037C43.3414 26.4125 44.1384 27.4157 44.6423 28.5533C45.1668 29.7353 45.3592 31.0268 45.358 32.2935C45.3502 33.6163 45.1516 34.9327 44.7671 36.2093C44.0033 38.7778 42.6005 41.1541 40.8827 43.3021C39.2726 45.3169 37.4048 47.1467 35.4866 48.9238C35.3072 49.0884 35.1286 49.252 34.9507 49.4145Z" fill="#C2C3C4"/>
<path d="M28.4461 55.027C27.9113 55.5571 27.9251 56.2669 27.6445 56.8951C27.1338 58.0243 26.3356 59.882 24.6327 59.665C22.8211 59.4336 21.1674 57.2887 20.2891 55.9869C18.9366 53.9814 18.3617 51.7559 17.3448 49.6276C17.0807 49.0582 16.7436 48.5186 16.3405 48.0199C15.9557 47.5539 15.4324 47.182 15.2457 46.6055C15.671 47.9142 16.1489 49.2064 16.6795 50.482C17.6448 52.809 18.8131 55.0632 20.1734 57.2236C21.5476 59.3933 23.1096 61.5093 24.9316 63.3918C25.3668 63.8423 25.8706 64.301 26.5142 64.4921C26.5998 64.5172 26.687 64.5375 26.7753 64.5531L26.4318 63.2234C26.4155 63.1705 26.4232 63.1139 26.4532 63.0662C26.4832 63.0184 26.5329 62.9834 26.5915 62.9687C26.6502 62.954 26.7128 62.961 26.7658 62.988C26.8187 63.015 26.8576 63.0599 26.8738 63.1128C26.9998 63.6046 27.1254 64.0957 27.2506 64.5862C27.4202 64.5804 27.5876 64.5501 27.7464 64.4963C27.7799 64.0249 27.7703 63.5518 27.7178 63.0818C27.7178 63.027 27.7419 62.9745 27.7849 62.9357C27.8279 62.897 27.8861 62.8752 27.9468 62.8752C28.0071 62.8765 28.0646 62.8987 28.1072 62.9372C28.1498 62.9756 28.1744 63.0274 28.1759 63.0818C28.2167 63.456 28.2313 63.8322 28.2194 64.208C28.2207 64.2058 28.2227 64.204 28.2251 64.2028C28.6466 63.7896 28.6946 63.1624 28.7004 62.6262C28.7004 61.9701 28.6706 61.313 28.6546 60.6631C28.6317 59.7219 28.6053 58.7806 28.5813 57.8394C28.563 57.1162 28.9065 55.618 28.4461 55.027Z" fill="#ACACAD"/>
<path d="M51.8363 49.3693C51.7367 49.517 51.6416 49.6668 51.5443 49.8156C50.209 51.8448 48.9562 53.9319 48.0836 56.1625C47.6484 57.2753 47.1319 58.4356 46.3498 59.4068C45.7245 60.1879 44.9298 61.0092 43.8762 61.313C43.5684 61.4123 43.2314 61.4094 42.9257 61.3047C42.0703 60.971 41.7588 59.8211 41.3763 59.135C41.1747 58.7734 40.6388 57.9593 40.6388 57.5697C40.6388 58.2372 40.7018 58.9129 40.7533 59.5783C40.7957 60.1445 40.7064 60.9648 40.9251 61.4949C40.9403 61.5311 40.9443 61.5704 40.9365 61.6085C40.9365 61.6374 40.9423 61.6674 40.9457 61.6963C40.9984 62.1902 41.0465 62.6861 41.1301 63.1769C41.1897 63.6049 41.319 64.0227 41.5137 64.4167C41.6117 64.6109 41.741 64.7909 41.8973 64.9509C41.9798 65.0325 42.1894 65.202 42.3314 65.1451C42.4081 65.1141 42.415 64.9995 42.4253 64.9385C42.4459 64.8207 42.4596 64.7019 42.4711 64.582C42.4959 64.3199 42.5035 64.0567 42.494 63.7937C42.4848 63.5271 42.944 63.5282 42.952 63.7937C42.9629 64.1145 42.9492 64.4355 42.9108 64.7546C42.8993 64.8789 42.8791 65.0025 42.8501 65.1245C42.8804 65.1405 42.9047 65.1642 42.92 65.1927C42.9463 65.2433 42.952 65.2443 43.015 65.2423C43.0412 65.2414 43.0669 65.2358 43.0905 65.2257C43.1141 65.2155 43.1352 65.2011 43.1525 65.1834C43.2864 65.0552 43.3116 64.8383 43.3471 64.6668C43.4452 64.1945 43.4817 63.7136 43.4559 63.2337C43.4433 62.9672 43.9014 62.9692 43.914 63.2337C43.9544 63.8353 43.8918 64.4389 43.7285 65.0232C44.6927 64.4994 45.4646 63.7524 46.0898 62.9093C46.7849 61.9722 47.314 60.9462 47.8156 59.913C48.4317 58.6484 49.0283 57.3741 49.6055 56.0902C50.1666 54.8411 50.8022 53.6198 51.3565 52.3707C51.8581 51.2342 52.6379 49.7381 52.5681 48.4941C52.5738 48.5892 52.11 48.9839 52.0298 49.0851C51.9497 49.1864 51.897 49.2773 51.8363 49.3693Z" fill="#ACACAD"/>
<path d="M63.7656 47.8597C63.4089 48.2607 63.0237 48.6403 62.6124 48.9962C61.6241 49.8476 60.4675 50.546 59.0623 50.6235C57.6057 50.7051 56.1112 50.3135 54.7462 49.892C54.1015 49.6916 53.4693 49.4601 52.8521 49.1987C53.4498 47.465 53.9755 45.7117 54.4049 43.9408L54.4725 43.8943C54.8847 45.0494 55.7574 46.034 56.8453 46.7428C58.1863 47.6169 59.8388 48.0105 61.4798 48.0384C62.2464 48.0479 63.0122 47.988 63.7656 47.8597V47.8597Z" fill="#C2C3C4"/>
<path d="M28.9729 55.1168L29.0038 56.2947C29.0428 57.7873 29.0809 59.2803 29.1183 60.7736C29.1252 61.0515 29.1378 61.3294 29.1481 61.6084C29.8489 62.0137 30.6328 62.2878 31.4533 62.4143C32.2037 62.5346 32.9634 62.6006 33.7254 62.6116C34.5273 62.6363 35.3301 62.6218 36.1302 62.5682C37.6361 62.4587 39.1409 62.1467 40.4579 61.4637C40.3571 60.4946 40.2781 59.5241 40.2208 58.5522C40.1521 57.3812 40.1139 56.2072 40.1063 55.03C40.1063 55.1757 37.7174 55.497 37.4529 55.5322C36.4911 55.6599 35.5209 55.7289 34.5488 55.7388C32.6676 55.7592 30.7919 55.55 28.9729 55.1168V55.1168Z" fill="#ACACAD"/>
<path d="M70.1992 17.5322C70.3446 17.7016 70.3446 17.9454 70.3251 18.1469C70.2851 18.4117 70.2125 18.6716 70.1087 18.9218C69.9942 19.2318 69.8797 19.5345 69.7468 19.8372C69.322 20.8394 68.8307 21.822 68.4677 22.8428C67.4759 22.8955 66.4361 22.8356 65.5177 22.4626C64.7424 22.1526 64.0748 21.636 63.706 20.9345C63.6916 20.9041 63.6677 20.8781 63.6372 20.8598C63.6067 20.8414 63.5709 20.8315 63.5342 20.8312C64.2845 19.9348 65.2022 19.1631 66.246 18.5509C67.2053 17.9792 68.2789 17.5816 69.4067 17.3803C69.677 17.3348 70.0171 17.3162 70.1992 17.5322Z" fill="#C2C3C4"/>
<path d="M67.8917 25.52C67.8332 26.1771 67.8195 26.8384 67.8172 27.4975C67.8172 28.7281 67.8436 29.9586 67.8688 31.1892C67.8324 31.1924 67.7975 31.2033 67.7668 31.2212C66.1109 32.18 63.9878 32.367 62.1372 31.7832C61.8783 31.7019 61.6261 31.6041 61.3825 31.4908C61.268 31.4361 61.1535 31.3782 61.0389 31.3173C60.9452 31.278 60.8574 31.228 60.7778 31.1685C60.7928 31.1273 60.7896 31.0825 60.7687 31.0435C60.7687 31.028 60.7687 31.0125 60.7687 30.997C60.9977 28.6289 60.9404 26.1668 61.7592 23.8855C62.1463 24.4548 62.8598 24.865 63.4953 25.1439C64.3664 25.5282 65.3234 25.7275 66.293 25.7267C66.8336 25.7216 67.3712 25.6522 67.8917 25.52V25.52Z" fill="#C2C3C4"/>
<path d="M67.8401 36.3147C67.7405 38.1982 67.4966 40.0776 66.9606 41.9002C66.9282 41.9033 66.8965 41.911 66.8667 41.9229C65.4903 42.4706 64.0114 42.7783 62.5082 42.83C61.229 42.8734 59.8182 42.7959 58.657 42.2597C58.11 42.0258 57.6602 41.6402 57.3732 41.1594C57.9813 40.3623 58.4985 39.5118 58.9169 38.6208C59.2244 37.9648 59.4879 37.2927 59.7059 36.6081C60.7226 37.0281 61.7978 37.3211 62.9021 37.4791C63.5043 37.5681 64.1173 37.5792 64.723 37.5122C65.285 37.4357 65.8315 37.2846 66.3445 37.0638C66.8594 36.8417 67.3589 36.5915 67.8401 36.3147V36.3147Z" fill="#C2C3C4"/>
<path d="M44.8828 31.7192C44.939 32.9847 44.8072 34.2512 44.4912 35.4852C43.8613 37.9948 42.5844 40.3319 40.9858 42.45C39.355 44.6114 37.3991 46.5518 35.3859 48.4249C35.1775 48.6192 34.9683 48.8127 34.7583 49.0056C32.2219 47.4805 29.7851 45.8246 27.4601 44.0463C26.3149 43.1691 25.1847 42.2712 24.1162 41.3186C23.1256 40.4352 22.1935 39.4888 21.456 38.4184C20.6754 37.2617 20.1486 35.9804 19.9043 34.6442C19.6374 33.2886 19.5046 31.8649 19.7142 30.4949C19.8974 29.2974 20.3749 28.1258 21.259 27.2021C22.0606 26.36 23.1669 25.7628 24.4117 25.6791C25.7252 25.5913 27.0021 26.0242 28.0888 26.6617C29.2684 27.354 30.2429 28.3086 31.0285 29.3553C31.2346 29.6308 31.4278 29.9135 31.6079 30.2035C31.6314 30.2452 31.6714 30.2774 31.72 30.2937C31.7686 30.31 31.8222 30.3091 31.8702 30.2913C31.8992 30.3008 31.9301 30.305 31.961 30.3034C31.9919 30.3019 32.0221 30.2947 32.0498 30.2823C32.0775 30.27 32.1021 30.2527 32.1223 30.2315C32.1424 30.2103 32.1575 30.1857 32.1668 30.1591C32.5802 29.0226 33.5318 28.1361 34.4938 27.3498C35.4557 26.5636 36.5379 25.7618 37.8148 25.3971C38.4081 25.2316 39.0325 25.1766 39.6501 25.2356C40.2676 25.2946 40.8654 25.4662 41.4072 25.7401C42.5253 26.3021 43.4216 27.1645 43.9712 28.2074C44.5622 29.2871 44.8233 30.5093 44.8828 31.7192Z" fill="#EDEDED"/>
<path d="M33.462 17.4032C33.7334 17.5437 33.6761 17.7721 33.5227 17.9756C33.3546 18.189 33.1627 18.3864 32.9501 18.5645C32.7625 18.7418 32.5298 18.8752 32.2721 18.953C32.0012 19.0158 31.7154 19.0007 31.4545 18.9096C30.8384 18.7164 30.3185 18.2701 29.889 17.832C29.9079 17.7499 29.9587 17.6766 30.0322 17.6254C30.1467 17.5489 30.307 17.5572 30.4422 17.5458L31.506 17.4497L32.5424 17.3557C32.8333 17.333 33.1929 17.2637 33.462 17.4032Z" fill="#A8768A"/>
<path d="M27.4223 8.07761C26.2327 6.96944 25.3738 5.60729 24.9259 4.11841C24.162 5.0563 23.7326 6.18172 23.6948 7.34508C23.6604 8.22846 23.8093 9.10151 23.9754 9.97352C24.2399 9.79685 24.5113 9.62637 24.7861 9.45693C24.9874 9.41003 25.1753 9.32477 25.337 9.20689L25.6599 9.00026C25.817 8.95764 25.9612 8.88306 26.0813 8.78225L26.134 8.73782C26.1596 8.71638 26.183 8.69286 26.2039 8.66757C26.6024 8.45783 27.0078 8.26565 27.4223 8.07761Z" fill="#EDEDED"/>
<path d="M42.6085 9.60863L42.0176 6.85C41.8328 5.98625 41.6481 5.12284 41.4633 4.25978C41.3935 3.93432 41.3385 3.5913 41.1896 3.28444C41.1283 3.14951 41.0388 3.02642 40.9262 2.92179C40.8999 2.8975 40.8716 2.87505 40.8415 2.85463C40.8255 2.84327 40.79 2.82984 40.7648 2.81641C40.7449 2.8577 40.7228 2.89805 40.6983 2.93729C39.8585 4.48088 39.0187 6.02413 38.179 7.56704C38.5443 7.68999 38.905 7.82534 39.2623 7.96689C39.3356 7.99581 39.4352 8.16526 39.5177 8.21795C39.6243 8.27161 39.7363 8.31623 39.8521 8.35123C40.0811 8.44835 40.27 8.60747 40.514 8.66842C40.8484 8.75315 41.0717 8.76245 41.3786 8.92982C41.7897 9.15403 42.2054 9.37203 42.6085 9.60863Z" fill="#EDEDED"/>
<path d="M68.3291 23.2624C68.3085 23.3265 68.2867 23.3895 68.2673 23.4546C68.1085 24.0001 67.997 24.5559 67.934 25.117C67.8915 25.105 67.846 25.105 67.8035 25.117C66.9544 25.3298 66.0628 25.3651 65.1963 25.22C64.3299 25.075 63.5116 24.7535 62.8036 24.2801C62.4418 24.0332 62.1165 23.7222 61.9837 23.3234C61.9837 23.3172 61.9837 23.311 61.9917 23.3037C62.3293 22.5295 62.7695 21.7951 63.3029 21.1165C63.3057 21.1253 63.3091 21.1339 63.3132 21.1423C63.7118 21.8976 64.4584 22.4792 65.2898 22.8192C66.2426 23.2066 67.295 23.3048 68.3291 23.2624Z" fill="#EDEDED"/>
<path d="M69.9404 16.9558C69.6198 16.9269 69.2961 16.955 68.9876 17.0385C68.7005 17.1005 68.4169 17.1749 68.1367 17.2616C65.9048 17.9559 64.0244 19.389 62.7258 21.1506C62.2466 21.8017 61.8477 22.4981 61.5359 23.2273C61.5313 23.2357 61.5271 23.2443 61.5233 23.2531C61.4157 23.5083 61.3184 23.7697 61.2325 24.027C60.7996 25.3454 60.6404 26.7226 60.5339 28.0895C60.3186 30.8389 60.1663 33.5903 59.3475 36.2611C58.6409 38.562 57.4419 40.7865 55.5684 42.4985C55.2584 42.7813 54.9307 43.048 54.587 43.2971H54.5595C55.1079 40.9398 55.4571 38.5483 55.6039 36.1433C55.9086 30.8141 55.0989 25.3609 52.6689 20.4635C52.1753 19.4695 51.6155 18.5034 50.9923 17.5706C52.4146 17.5299 53.8366 17.5072 55.2581 17.5024C57.0049 17.4962 58.7513 17.5172 60.4973 17.5654C60.7916 17.5737 60.7916 17.1604 60.4973 17.1521C57.3931 17.0674 54.2874 17.0674 51.1801 17.1521L50.7221 17.1666C48.7753 14.3708 46.2616 11.8973 43.2635 10.0055C43.1891 9.95799 43.1124 9.91149 43.0345 9.865C43.0598 9.84076 43.0781 9.81139 43.0881 9.77937C43.0981 9.74735 43.0993 9.71364 43.0918 9.68109C42.6955 7.82891 42.2989 5.97674 41.9019 4.12457C41.8427 3.7651 41.7371 3.41313 41.587 3.07587C41.4473 2.79484 41.153 2.42186 40.7854 2.37847C40.5209 2.34747 40.4052 2.54584 40.3067 2.72769C40.193 2.93432 40.0784 3.14096 39.9632 3.3476L39.2761 4.6174C38.7684 5.5521 38.2603 6.48714 37.7518 7.42252C37.2102 7.25308 36.6605 7.10637 36.1051 6.98652C34.6339 6.6569 33.1046 6.59543 31.6068 6.80571C30.3068 7.01258 29.0439 7.37789 27.8529 7.89159V7.8854C26.553 6.71043 25.6519 5.22502 25.2557 3.60384C25.245 3.56906 25.2244 3.53742 25.1959 3.51206C25.1674 3.48671 25.1321 3.46853 25.0934 3.45934C25.0547 3.45014 25.014 3.45025 24.9754 3.45965C24.9367 3.46905 24.9015 3.48741 24.8732 3.51291C24.2543 4.1704 23.7927 4.93616 23.5173 5.76218C23.2138 6.67656 23.1841 7.6333 23.2883 8.57764C23.3524 9.13866 23.4566 9.69659 23.562 10.2524C20.7769 12.1928 18.4682 14.6952 16.7276 17.4466C16.3932 17.9756 16.0806 18.5132 15.7897 19.0594C13.4799 19.4489 11.193 19.9696 8.9988 20.7342C7.49765 21.2508 6.05434 21.8949 4.68836 22.658C4.43872 22.7985 4.6689 23.156 4.9174 23.0145C7.30852 21.6713 9.95616 20.7507 12.6748 20.1071C13.6264 19.8818 14.5861 19.6938 15.5515 19.5202C13.5669 23.4277 12.6347 27.7217 12.5214 32.0219C12.3782 37.4503 13.4455 42.92 15.2698 48.0829C16.9955 52.972 19.5069 57.6596 22.9218 61.7779C23.3303 62.2718 23.7521 62.7577 24.1872 63.2357C24.6281 63.7213 25.0816 64.2121 25.6634 64.5665C26.5864 65.1275 27.9846 65.2288 28.6981 64.3288C29.0416 63.9011 29.1298 63.3566 29.1562 62.8421C29.1665 62.5972 29.1665 62.3513 29.163 62.1064C30.4284 62.7811 31.9446 62.9557 33.3944 63.0105C35.0309 63.0714 36.7006 63.0291 38.2981 62.6726C39.069 62.5047 39.8129 62.2485 40.5117 61.9101L40.522 62.0073C40.6296 62.9671 40.6881 64.0199 41.2583 64.8671C41.5034 65.2308 42.0508 65.797 42.5856 65.4995C42.6624 65.5727 42.7606 65.6246 42.8689 65.6493C42.9772 65.674 43.091 65.6704 43.1971 65.6389C43.3117 65.6061 43.4137 65.5449 43.4914 65.4623C43.525 65.4947 43.57 65.5158 43.6187 65.522C43.6675 65.5282 43.7172 65.5192 43.7594 65.4964C46.0211 64.3702 47.2087 62.1901 48.2073 60.1392C49.4578 57.5738 50.643 54.9795 51.6897 52.3407C52.0501 51.4315 52.3936 50.5164 52.7204 49.5955C54.0207 50.1436 55.3846 50.5594 56.7869 50.8353C58.2298 51.1163 59.7151 51.1649 61.0618 50.545C62.2322 50.0057 63.2171 49.1181 64.0393 48.211C64.1824 48.0529 64.321 47.8907 64.4561 47.7275C64.4997 47.717 64.538 47.6935 64.5648 47.6608C64.5916 47.6282 64.6054 47.5883 64.6039 47.5477C65.1756 46.828 65.6739 46.0631 66.0926 45.2623C67.2286 43.1049 67.8367 40.7565 68.1184 38.3894C68.462 35.5296 68.3474 32.649 68.2902 29.7809C68.2638 28.3582 68.2146 26.923 68.3417 25.5034C68.4631 24.1448 68.8925 22.8771 69.4468 21.6166C69.7205 20.9966 70.0091 20.3767 70.2679 19.7496C70.4901 19.2113 70.7603 18.6379 70.7867 18.0572C70.8164 17.5447 70.5427 17.0478 69.9404 16.9558ZM60.771 30.9959C61 28.6278 60.9427 26.1657 61.7615 23.8844C62.1486 24.4537 62.862 24.8639 63.4976 25.1429C64.3679 25.5272 65.3241 25.7268 66.293 25.7266C66.8349 25.724 67.374 25.6566 67.8962 25.5262C67.8378 26.1833 67.8241 26.8445 67.8218 27.5037C67.8218 28.7342 67.8481 29.9648 67.8733 31.1953C67.837 31.1985 67.8021 31.2095 67.7714 31.2273C66.1155 32.1861 63.9923 32.3732 62.1417 31.7894C61.8829 31.708 61.6307 31.6103 61.3871 31.497C61.2726 31.4422 61.158 31.3844 61.0435 31.3234C60.9498 31.2842 60.862 31.2342 60.7824 31.1746C60.7974 31.1335 60.7941 31.0887 60.7733 31.0496C60.7675 31.03 60.7698 31.0145 60.771 30.9959ZM40.6984 2.93742C40.7228 2.89818 40.7449 2.85783 40.7648 2.81654C40.79 2.82997 40.8255 2.8434 40.8415 2.85477C40.8716 2.87519 40.8999 2.89764 40.9262 2.92193C41.0389 3.02655 41.1283 3.14965 41.1896 3.28458C41.3385 3.59454 41.3935 3.93446 41.4633 4.25991C41.6481 5.12367 41.8328 5.98707 42.0176 6.85013L42.6085 9.60877C42.5764 9.46412 41.7897 9.14486 41.6363 9.06324C41.4828 8.98162 41.3259 8.89999 41.1656 8.8194C41.0831 8.52081 41.019 8.21912 40.9583 7.91639C40.8976 7.61367 40.8507 7.30474 40.7842 6.99995C40.7384 6.78814 40.7178 6.45649 40.5838 6.27671C40.4361 6.07937 40.4338 6.10727 40.2746 6.3356C40.0181 6.70239 39.8658 7.1229 39.6345 7.50415C39.5349 7.66842 39.4352 7.83167 39.331 7.99285C38.9474 7.8389 38.5626 7.69425 38.1858 7.56614C39.0218 6.02323 39.8593 4.48033 40.6984 2.93742ZM23.6948 7.34503C23.7326 6.18167 24.162 5.05625 24.9259 4.11837C25.3738 5.60725 26.2327 6.9694 27.4224 8.07757C27.2964 7.96185 26.7043 8.29971 26.3115 8.54251C26.2199 8.43919 26.1352 8.3307 26.0539 8.22015C25.6462 7.66119 25.2648 7.06917 24.8411 6.54637C24.7266 6.40793 24.5697 7.34503 24.5617 7.42149C24.5234 7.7993 24.5142 8.17905 24.5342 8.55801C24.5411 8.68612 24.6957 9.48788 24.6396 9.51784C24.3086 9.69969 23.9616 9.90426 23.9754 9.97245C23.8116 9.10457 23.6605 8.22842 23.6948 7.34503ZM52.6185 48.4941C51.7539 51.0771 50.7255 53.6094 49.6032 56.1087C49.0284 57.3892 48.4317 58.6635 47.8133 59.9316C47.3117 60.9648 46.7827 61.9876 46.0875 62.9278C45.4623 63.7709 44.6904 64.5179 43.7262 65.0417C43.8895 64.4574 43.9521 63.8538 43.9117 63.2523C43.8991 62.9878 43.4411 62.9857 43.4536 63.2523C43.4788 63.7297 43.4423 64.2082 43.3449 64.6781C43.3094 64.8444 43.2842 65.0614 43.1502 65.1947C43.133 65.2124 43.1119 65.2268 43.0882 65.237C43.0646 65.2471 43.0389 65.2527 43.0128 65.2536C42.9498 65.2536 42.944 65.2536 42.9177 65.204C42.9024 65.1755 42.8781 65.1518 42.8478 65.1358C42.8768 65.0138 42.897 64.8902 42.9085 64.7659C42.9469 64.4468 42.9607 64.1258 42.9498 63.805C42.9418 63.5395 42.4825 63.5384 42.4917 63.805C42.5013 64.068 42.4936 64.3312 42.4688 64.5933C42.4573 64.7132 42.4436 64.832 42.423 64.9498C42.4127 65.0139 42.4058 65.1285 42.3291 65.1564C42.1871 65.2133 41.9775 65.0438 41.8951 64.9622C41.7387 64.8022 41.6094 64.6222 41.5114 64.428C41.3167 64.034 41.1874 63.6162 41.1278 63.1882C41.0442 62.6974 40.9961 62.2015 40.9434 61.7076C40.9434 61.6787 40.9434 61.6487 40.9343 61.6198C40.942 61.5817 40.938 61.5424 40.9228 61.5062C40.706 59.4315 40.5915 57.3506 40.5793 55.2636C40.5701 54.0472 40.5949 52.8314 40.6537 51.6164C40.6663 51.3509 40.2082 51.3509 40.1956 51.6164C40.0834 53.928 40.0945 56.2403 40.2288 58.5533C40.2853 59.5245 40.3643 60.495 40.4659 61.4648C39.1489 62.1478 37.6442 62.4598 36.1383 62.5693C35.3381 62.6229 34.5353 62.6374 33.7334 62.6127C32.9705 62.6035 32.2095 62.5393 31.458 62.4205C30.6374 62.2941 29.8535 62.02 29.1527 61.6146C29.1424 61.3357 29.1298 61.0577 29.1229 60.7798C29.0848 59.2865 29.0466 57.7935 29.0084 56.3009C28.9718 54.8462 28.9336 53.3918 28.8939 51.9377C28.887 51.6722 28.429 51.6712 28.4358 51.9377C28.5122 54.8465 28.5885 57.7553 28.6649 60.6641C28.6809 61.3191 28.7164 61.9763 28.7107 62.6272C28.705 63.1634 28.6569 63.7864 28.2354 64.2038C28.233 64.205 28.231 64.2068 28.2297 64.209C28.2416 63.8331 28.227 63.457 28.1862 63.0828C28.1847 63.0284 28.1601 62.9766 28.1175 62.9381C28.0749 62.8997 28.0174 62.8775 27.9572 62.8762C27.8964 62.8762 27.8382 62.8979 27.7952 62.9367C27.7522 62.9754 27.7281 63.028 27.7281 63.0828C27.7806 63.5528 27.7902 64.0259 27.7567 64.4973C27.5979 64.5511 27.4305 64.5814 27.2609 64.5871C27.1349 64.0967 27.0093 63.6056 26.8841 63.1138C26.8761 63.0876 26.8624 63.0631 26.8439 63.0417C26.8253 63.0203 26.8023 63.0024 26.7761 62.989C26.7499 62.9756 26.721 62.967 26.6911 62.9637C26.6612 62.9604 26.6309 62.9624 26.6018 62.9697C26.5728 62.9769 26.5457 62.9893 26.5219 63.006C26.4982 63.0227 26.4783 63.0435 26.4635 63.0672C26.4487 63.0908 26.4391 63.1169 26.4355 63.1438C26.4318 63.1708 26.434 63.1982 26.4421 63.2244L26.7856 64.5541C26.6973 64.5385 26.6101 64.5182 26.5245 64.4931C25.881 64.302 25.3794 63.8432 24.9419 63.3928C23.1199 61.5103 21.5545 59.3933 20.1837 57.2246C18.8234 55.0642 17.6551 52.81 16.6898 50.483C14.6686 45.627 13.3791 40.461 13.0573 35.2847C12.7366 30.1404 13.4432 24.867 15.7622 20.1246C15.8767 19.8911 15.9947 19.6587 16.1161 19.4272C17.7594 19.1555 19.4164 18.9478 21.0735 18.766C22.6481 18.5934 24.3613 18.3145 25.8764 18.8827C25.9054 18.8899 25.9357 18.8919 25.9656 18.8885C25.9955 18.8852 26.0243 18.8765 26.0505 18.8631C26.0766 18.8497 26.0996 18.8317 26.1181 18.8103C26.1365 18.7888 26.1501 18.7643 26.1581 18.7381C26.1661 18.7119 26.1683 18.6845 26.1645 18.6576C26.1608 18.6306 26.1512 18.6046 26.1363 18.581C26.1214 18.5574 26.1015 18.5367 26.0778 18.52C26.054 18.5034 26.0268 18.4911 25.9978 18.4839C24.6098 17.9673 23.0661 18.1399 21.6163 18.2938C20.1837 18.4467 18.7534 18.6141 17.3276 18.8218C17.0059 18.8693 16.6841 18.9179 16.3634 18.9695C16.5088 18.9468 16.936 17.9725 17.0356 17.8227C17.2799 17.4287 17.5353 17.0409 17.8017 16.6593C18.3339 15.8956 18.9115 15.1586 19.5321 14.4514C20.7651 13.0347 22.181 11.7559 23.7498 10.642C24.0552 10.4271 24.3682 10.2166 24.6888 10.0107C24.6888 10.0809 24.6957 10.1502 24.7003 10.2173C24.7301 10.6895 25.053 10.6678 25.4492 10.4704C25.9359 10.2287 26.5715 10.0892 26.9815 9.73895C27.2357 9.52094 27.2895 9.46205 27.0811 9.19652C27.0559 9.16449 26.6505 8.90309 26.6711 8.88656C27.0032 8.60967 27.5655 8.43299 27.9766 8.26045C28.4529 8.05918 28.9403 7.87986 29.4367 7.72318C30.4034 7.41532 31.4084 7.2158 32.4291 7.1291C34.7629 6.94106 36.972 7.54237 39.0791 8.36893C38.9703 8.51874 38.8558 8.66442 38.7355 8.80391C38.5683 8.98988 38.7916 9.08907 38.9772 9.13763C39.3948 9.24311 39.8004 9.3839 40.1888 9.55814C40.4361 9.67179 41.0236 10.1688 41.2858 10.0355C41.3402 10.0106 41.3852 9.97167 41.415 9.92364C41.4448 9.87561 41.458 9.82066 41.453 9.76581C41.4152 9.63356 41.3752 9.50235 41.3385 9.37113C44.3343 10.9127 46.9418 13.1547 48.9894 15.6209C49.4124 16.1306 49.8139 16.6534 50.1941 17.1893C47.4221 17.2782 44.6618 17.4352 41.9134 17.6605C40.1735 17.803 38.437 17.9728 36.704 18.1698C36.6438 18.1714 36.5865 18.1937 36.544 18.2321C36.5014 18.2705 36.4767 18.3221 36.475 18.3765C36.475 18.4313 36.4991 18.4838 36.542 18.5226C36.585 18.5613 36.6432 18.5831 36.704 18.5831C39.7868 18.2339 42.8788 17.969 45.9799 17.7886C47.4755 17.7018 48.9722 17.635 50.4701 17.5881C50.6045 17.7844 50.7358 17.9825 50.8641 18.1822C53.6755 22.5609 54.9867 27.6019 55.1848 32.6325C55.3887 38.0123 54.3374 43.357 52.6185 48.4941ZM62.6124 48.9942C61.6241 49.8455 60.4675 50.544 59.0624 50.6214C57.6057 50.7031 56.1113 50.3115 54.7462 49.8899C54.1016 49.6895 53.4693 49.4581 52.8521 49.1967C53.4499 47.463 53.9755 45.7096 54.4049 43.9387L54.4725 43.8922C54.8848 45.0474 55.7574 46.032 56.8453 46.7408C58.1863 47.6148 59.8388 48.0085 61.4798 48.0364C62.2449 48.0463 63.0091 47.9871 63.761 47.8597C63.4057 48.2599 63.022 48.6388 62.6124 48.9942V48.9942ZM66.5186 43.231C65.9778 44.7046 65.1937 46.0961 64.1927 47.3586C62.5998 47.6841 60.9141 47.7461 59.3292 47.3503C57.9419 47.0166 56.7084 46.2928 55.8078 45.284C55.3776 44.7911 55.0576 44.2275 54.8653 43.6246C55.6976 43.0143 56.4416 42.3121 57.0801 41.5345C57.6801 42.4303 58.8482 42.8859 59.9533 43.0843C61.4546 43.3539 63.0453 43.3002 64.5397 43.0254C65.3174 42.8808 66.0779 42.6691 66.8106 42.3931C66.7201 42.671 66.6239 42.9531 66.5186 43.231V43.231ZM66.9606 41.9002C66.9282 41.9034 66.8966 41.9111 66.8667 41.923C65.4903 42.4706 64.0115 42.7784 62.5082 42.8301C61.229 42.8735 59.8182 42.796 58.657 42.2598C58.11 42.0259 57.6602 41.6403 57.3732 41.1594C57.9813 40.3624 58.4985 39.5118 58.9169 38.6209C59.2244 37.9649 59.4879 37.2928 59.706 36.6082C60.7226 37.0282 61.7978 37.3212 62.9021 37.4792C63.5043 37.5682 64.1174 37.5793 64.723 37.5123C65.285 37.4358 65.8315 37.2847 66.3445 37.0639C66.8571 36.8416 67.3543 36.5914 67.8333 36.3148C67.7405 38.1983 67.4908 40.0777 66.9606 41.9002V41.9002ZM67.863 35.8323C67.8365 35.8369 67.8113 35.846 67.7886 35.8592C66.885 36.3623 65.9563 36.882 64.8993 37.0701C63.7896 37.2684 62.6273 37.0639 61.5577 36.7839C60.9704 36.6299 60.3963 36.4376 59.8399 36.2084C60.2692 34.7037 60.5611 33.1697 60.7126 31.622L60.7355 31.6344C60.967 31.7634 61.2076 31.8787 61.4558 31.9795C61.9559 32.1833 62.4816 32.3318 63.0212 32.4217C64.1137 32.6046 65.2383 32.5547 66.3056 32.276C66.8583 32.1291 67.3873 31.9176 67.8791 31.6468C67.9088 33.0416 67.9191 34.4375 67.863 35.8323V35.8323ZM68.2673 23.4536C68.1085 23.9991 67.997 24.5549 67.934 25.116C67.8915 25.104 67.846 25.104 67.8035 25.116C66.9545 25.329 66.0629 25.3644 65.1965 25.2195C64.33 25.0747 63.5117 24.7534 62.8036 24.2801C62.4418 24.0332 62.1165 23.7222 61.9837 23.3234C61.9837 23.3172 61.9837 23.311 61.9917 23.3038C62.3293 22.5296 62.7695 21.7951 63.3029 21.1165C63.3057 21.1253 63.3091 21.1339 63.3132 21.1423C63.7118 21.8976 64.4584 22.4793 65.2898 22.8192C66.2426 23.2056 67.295 23.3038 68.3291 23.2614C68.3085 23.3265 68.2867 23.3895 68.2673 23.4536ZM70.3286 18.1461C70.2886 18.4108 70.216 18.6707 70.1121 18.921C69.9976 19.2309 69.8831 19.5336 69.7503 19.8364C69.3254 20.8386 68.8341 21.8211 68.4711 22.8419C67.4794 22.8946 66.4396 22.8347 65.5211 22.4617C64.7459 22.1518 64.0782 21.6352 63.7095 20.9336C63.695 20.9032 63.6711 20.8773 63.6406 20.8589C63.6101 20.8406 63.5744 20.8306 63.5377 20.8303C64.288 19.9339 65.2056 19.1623 66.2495 18.55C67.2088 17.9783 68.2823 17.5807 69.4102 17.3794C69.677 17.336 70.0171 17.3174 70.2026 17.5334C70.3481 17.7018 70.3481 17.9446 70.3286 18.1471V18.1461Z" fill="black"/>
<path d="M67.8779 31.6469C67.9054 33.0417 67.9191 34.4365 67.863 35.8323C67.8365 35.8369 67.8113 35.8461 67.7886 35.8592C66.885 36.3624 65.9563 36.8821 64.8993 37.0701C63.7896 37.2685 62.6273 37.0639 61.5577 36.7839C60.9704 36.63 60.3962 36.4376 59.8399 36.2084C60.2692 34.7037 60.561 33.1698 60.7125 31.6221L60.7354 31.6345C60.967 31.7635 61.2076 31.8787 61.4558 31.9796C61.9559 32.1833 62.4815 32.3318 63.0212 32.4218C64.1136 32.6047 65.2383 32.5548 66.3056 32.2761C66.8579 32.1291 67.3864 31.9176 67.8779 31.6469V31.6469Z" fill="#EDEDED"/>
<path d="M66.8106 42.3899C66.7201 42.672 66.6239 42.953 66.5186 43.2309C65.9778 44.7045 65.1937 46.096 64.1927 47.3585C62.5998 47.684 60.9141 47.746 59.3292 47.3503C57.9418 47.0165 56.7084 46.2928 55.8078 45.2839C55.3776 44.791 55.0575 44.2275 54.8653 43.6246C55.6976 43.0142 56.4416 42.312 57.0801 41.5344C57.6801 42.4302 58.8482 42.8858 59.9533 43.0842C61.4546 43.3539 63.0453 43.3002 64.5397 43.0253C65.3175 42.8798 66.078 42.667 66.8106 42.3899V42.3899Z" fill="#EDEDED"/>
<path d="M44.6389 28.5534C45.1634 29.7354 45.3558 31.0269 45.3546 32.2936C45.3468 33.6164 45.1482 34.9328 44.7637 36.2094C44.0033 38.7779 42.6005 41.1542 40.8827 43.3022C39.1238 45.503 37.0579 47.4826 34.9553 49.4146C34.9194 49.447 34.8726 49.4678 34.8223 49.4736C34.7719 49.4794 34.7208 49.4699 34.677 49.4467C34.3518 49.2524 34.0281 49.0554 33.7059 48.8557C31.0515 47.2144 28.5092 45.4303 26.0928 43.513C23.917 41.7845 21.645 39.934 20.4036 37.5205C19.7302 36.2104 19.4165 34.7856 19.2584 33.3567C19.1004 31.9278 19.1153 30.4452 19.61 29.0659C20.0085 27.9531 20.7357 26.9189 21.7652 26.1977C22.2818 25.832 22.8743 25.5633 23.5078 25.4075C24.1413 25.2517 24.803 25.2119 25.4538 25.2906C26.828 25.4548 28.0946 26.0665 29.1619 26.8496C30.2416 27.6633 31.1534 28.6427 31.8553 29.7426C31.9349 29.5636 32.0263 29.389 32.129 29.2198C32.7898 28.1349 33.856 27.2619 34.9015 26.4818C35.9688 25.6842 37.1815 24.9785 38.5844 24.8153C39.8704 24.6644 41.1793 25.0374 42.2295 25.7038C43.338 26.4126 44.135 27.4158 44.6389 28.5534ZM44.4912 35.481C44.8069 34.2483 44.9386 32.9832 44.8828 31.7191C44.8233 30.5134 44.5622 29.2911 43.9667 28.2062C43.417 27.1634 42.5208 26.301 41.4027 25.739C40.8609 25.4651 40.2631 25.2934 39.6455 25.2345C39.0279 25.1755 38.4035 25.2304 37.8102 25.3959C36.538 25.7607 35.4684 26.5521 34.4892 27.3487C33.5101 28.1453 32.5756 29.0204 32.1622 30.1579C32.153 30.1845 32.1378 30.2092 32.1177 30.2304C32.0976 30.2515 32.0729 30.2688 32.0452 30.2812C32.0175 30.2935 31.9873 30.3007 31.9565 30.3023C31.9256 30.3038 31.8947 30.2997 31.8656 30.2902C31.8177 30.308 31.7641 30.3088 31.7155 30.2926C31.6669 30.2763 31.6269 30.2441 31.6034 30.2024C31.4255 29.9048 31.2358 29.6183 31.0342 29.3427C30.2487 28.2961 29.2741 27.3414 28.0946 26.6492C27.0078 26.0117 25.7309 25.5788 24.4174 25.6666C23.1726 25.7503 22.0698 26.3475 21.2648 27.1896C20.3807 28.1132 19.9032 29.2849 19.7199 30.4824C19.5104 31.8524 19.6432 33.272 19.91 34.6317C20.1544 35.9679 20.6812 37.2492 21.4617 38.4059C22.1992 39.4763 23.1314 40.4227 24.122 41.3061C25.1904 42.2587 26.3219 43.1566 27.4659 44.0338C29.7909 45.8121 32.2277 47.468 34.7641 48.9931C34.974 48.7995 35.1832 48.606 35.3916 48.4124C37.4048 46.5393 39.3608 44.5989 40.9915 42.4375C42.5845 40.3277 43.8602 37.9906 44.4912 35.481Z" fill="black"/>
<path d="M41.2458 15.8762C41.2537 15.9024 41.2559 15.9297 41.2522 15.9567C41.2485 15.9836 41.2389 16.0097 41.224 16.0333C41.2091 16.0569 41.1892 16.0776 41.1654 16.0942C41.1416 16.1109 41.1145 16.1232 41.0854 16.1304C39.5914 16.348 38.1103 16.6287 36.6421 16.9724C36.3559 17.0396 36.2356 16.6407 36.5208 16.5736C37.9866 16.2292 39.4677 15.9485 40.964 15.7315C40.9931 15.7243 41.0234 15.7223 41.0533 15.7257C41.0831 15.7291 41.112 15.7377 41.1381 15.7512C41.1643 15.7646 41.1873 15.7826 41.2057 15.804C41.2242 15.8255 41.2378 15.85 41.2458 15.8762V15.8762Z" fill="black"/>
<path d="M34.6312 13.8211L34.6255 13.8273C34.6283 13.8258 34.6307 13.8237 34.6324 13.8211H34.6312ZM35.2553 13.7436C35.3298 13.91 35.2267 14.0711 35.0904 14.1807C34.9823 14.274 34.8481 14.339 34.7022 14.3687C34.6273 14.3844 34.5496 14.3866 34.4737 14.3751C34.3979 14.3636 34.3253 14.3386 34.2602 14.3015C34.0128 14.1435 33.9166 13.8252 34.1365 13.6103C34.1556 13.592 34.1787 13.5774 34.2043 13.5675C34.2299 13.5575 34.2575 13.5524 34.2854 13.5525C34.32 13.5165 34.3605 13.4854 34.4056 13.4605C34.4744 13.4248 34.551 13.4029 34.6301 13.3965C34.7092 13.3901 34.7889 13.3992 34.8637 13.4233C34.9504 13.448 35.0303 13.4891 35.0979 13.544C35.1654 13.5989 35.2191 13.6663 35.2553 13.7416V13.7436Z" fill="black"/>
<path d="M33.9555 17.2543C34.196 17.5261 34.1411 17.8743 33.9452 18.1512C33.7453 18.4224 33.5087 18.6702 33.241 18.8889C32.996 19.1106 32.6937 19.2739 32.3615 19.3641C32.0545 20.4113 32.0297 21.5095 32.2893 22.567C32.3534 22.8264 31.9114 22.9359 31.8473 22.6765C31.5801 21.5978 31.5899 20.4782 31.8759 19.4034C31.6827 19.3945 31.492 19.3597 31.3102 19.3001C30.5853 19.0645 29.9818 18.5582 29.4859 18.0406C29.4615 18.016 29.4439 17.9864 29.4348 17.9544C29.4256 17.9224 29.4251 17.8889 29.4332 17.8567C29.4292 17.8289 29.4292 17.8008 29.4332 17.773C29.466 17.6029 29.5626 17.4482 29.7069 17.3349C29.8675 17.2181 30.0665 17.1527 30.2727 17.149L31.6732 17.0229C32.0981 16.9847 32.5264 16.9278 32.9524 16.9123C33.3246 16.8989 33.7151 16.9754 33.9555 17.2543ZM33.5227 17.9776C33.6761 17.7709 33.7334 17.5457 33.462 17.4052C33.1906 17.2647 32.8333 17.3349 32.5458 17.3608L31.5094 17.4548L30.4456 17.5509C30.3104 17.5622 30.1501 17.5509 30.0356 17.6304C29.9621 17.6817 29.9113 17.755 29.8925 17.8371C30.3219 18.2751 30.8418 18.7215 31.4579 18.9147C31.7188 19.0057 32.0047 19.0209 32.2756 18.9581C32.5332 18.8802 32.7659 18.7469 32.9535 18.5696C33.1651 18.3903 33.3558 18.1919 33.5227 17.9776V17.9776Z" fill="black"/>
<path d="M30.4616 13.8366L30.4719 13.8304C30.4683 13.8322 30.4649 13.8342 30.4616 13.8366ZM30.9586 13.7808C30.9587 13.8623 30.9356 13.9424 30.8915 14.0135C30.8474 14.0846 30.7838 14.1443 30.7067 14.1868C30.5656 14.26 30.4044 14.2958 30.2418 14.2901C30.0755 14.2955 29.9128 14.2463 29.7837 14.1517C29.7135 14.0947 29.6666 14.018 29.6506 13.934C29.6346 13.8501 29.6504 13.7637 29.6955 13.6888C29.7225 13.6389 29.7624 13.5956 29.8118 13.5625C29.8612 13.5294 29.9187 13.5075 29.9795 13.4987C30.0376 13.4631 30.1013 13.4356 30.1685 13.4171C30.3145 13.3793 30.4687 13.3743 30.6174 13.4026C30.7139 13.4209 30.8006 13.4684 30.8633 13.5371C30.926 13.6058 30.9608 13.6918 30.9621 13.7808H30.9586Z" fill="black"/>
<path d="M26.2726 16.9444C26.2939 16.9636 26.3108 16.9864 26.3223 17.0115C26.3338 17.0366 26.3398 17.0635 26.3398 17.0906C26.3398 17.1178 26.3338 17.1447 26.3223 17.1698C26.3108 17.1948 26.2939 17.2176 26.2726 17.2368C26.2285 17.2737 26.1707 17.2942 26.1106 17.2942C26.0505 17.2942 25.9926 17.2737 25.9485 17.2368C25.6634 17.0302 25.2992 16.9444 24.9499 16.8804C24.5365 16.8049 24.1162 16.7523 23.7005 16.6903L21.03 16.2956C21.001 16.2884 20.9738 16.2761 20.95 16.2595C20.9262 16.2428 20.9063 16.2221 20.8914 16.1985C20.8765 16.1749 20.867 16.1489 20.8632 16.1219C20.8595 16.095 20.8617 16.0676 20.8697 16.0414C20.8875 15.9895 20.9265 15.9457 20.9788 15.9189C21.0312 15.892 21.0928 15.8841 21.1514 15.8968L23.9342 16.31C24.7358 16.4278 25.613 16.4743 26.2726 16.9444Z" fill="black"/>
</g>
</svg>
